<svg width="592" height="566" viewBox="0 0 592 566" fill="none" xmlns="http://www.w3.org/2000/svg">
<g clip-path="url(#clip0_1_2)">
<path fill-rule="evenodd" clip-rule="evenodd" d="M296 0L251.699 46.2469L193.214 17.0743L168.35 74.8063L102.811 66.222L100.443 128.482L35.742 141.5L56.0427 200.765L0 233.852L40.6753 283.024L0 332.148L56.0427 365.235L35.742 424.5L100.443 437.542L102.811 499.778L168.35 491.217L193.214 548.949L251.699 519.777L296 566L340.326 519.777L398.786 548.949L423.699 491.217L489.214 499.778L491.582 437.542L556.283 424.5L535.957 365.235L592 332.148L551.325 283.024L592 233.852L535.957 200.765L556.283 141.5L491.582 128.482L489.214 66.222L423.699 74.8063L398.786 17.0743L340.326 46.2469L296 0V0Z" fill="black"/>
</g>
<defs>
<clipPath id="clip0_1_2">
<rect width="592" height="566" fill="white"/>
</clipPath>
</defs>
</svg>
